<?xml version="1.0" encoding="UTF-8"?>
<svg width="32px" height="32px" viewBox="0 0 32 32" version="1.1" xmlns="http://www.w3.org/2000/svg" xmlns:xlink="http://www.w3.org/1999/xlink">
    <!-- Generator: Sketch 51.2 (57519) - http://www.bohemiancoding.com/sketch -->
    <title>flaticon1533990205-svg</title>
    <desc>Created with Sketch.</desc>
    <defs></defs>
    <g id="Mobile" stroke="none" stroke-width="1" fill="none" fill-rule="evenodd">
        <g id="Landing-Page" transform="translate(-1334.000000, -744.000000)" fill-rule="nonzero">
            <g id="flaticon1533990205-svg" transform="translate(1334.000000, 744.000000)">
                <rect id="Rectangle-path" fill="#1BD741" x="0" y="0" width="31.9811228" height="31.9811228" rx="15.9905614"></rect>
                <g id="Group" transform="translate(6.000000, 6.000000)" fill="#FFFFFF">
                    <path d="M0.030875,19.963125 L1.4260625,15.007875 C0.528875,13.4836875 0.0565,11.7495 0.0565,9.968 C0.0565,4.4826875 4.519125,0.0200625 10.0044375,0.0200625 C15.48975,0.0200625 19.9523125,4.4826875 19.9523125,9.968 C19.9523125,15.4533125 15.48975,19.9159375 10.0044375,19.9159375 C8.29525,19.9159375 6.621625,19.4784375 5.1410625,18.6476875 L0.030875,19.963125 Z M5.4023125,16.837875 L5.7068125,17.0238125 C6.9976875,17.811875 8.4838125,18.2284375 10.0044375,18.2284375 C14.55925,18.2284375 18.2648125,14.5228125 18.2648125,9.968 C18.2648125,5.4131875 14.55925,1.7075625 10.0044375,1.7075625 C5.449625,1.7075625 1.744,5.4131875 1.744,9.968 C1.744,11.5550625 2.1950625,13.09625 3.0483125,14.4249375 L3.253375,14.74425 L2.4499375,17.597875 L5.4023125,16.837875 Z" id="Shape"></path>
                    <path d="M7.2099375,5.3379375 L6.5644375,5.30275 C6.3616875,5.2916875 6.1628125,5.3594375 6.0095625,5.4925625 C5.696625,5.7643125 5.19625,6.2896875 5.0425625,6.9743125 C4.813375,7.995125 5.1675625,9.245125 6.08425,10.495125 C7.0009375,11.745125 8.70925,13.745125 11.7300625,14.5993125 C12.7035,14.8745625 13.46925,14.689 14.0600625,14.3110625 C14.528,14.01175 14.8505625,13.5313125 14.9668125,12.9881875 L15.069875,12.5068125 C15.102625,12.3538125 15.0249375,12.1985625 14.8828125,12.1330625 L12.70125,11.1275 C12.559625,11.06225 12.3916875,11.1035 12.2964375,11.2269375 L11.44,12.3371875 C11.3753125,12.4210625 11.2645625,12.4543125 11.1645625,12.4191875 C10.5780625,12.2130625 8.6134375,11.39025 7.5354375,9.31375 C7.4886875,9.2236875 7.5003125,9.114375 7.566625,9.0375625 L8.385125,8.0906875 C8.46875,7.994 8.489875,7.8580625 8.439625,7.7405625 L7.49925,5.5405 C7.4491875,5.423375 7.337,5.344875 7.2099375,5.3379375 Z" id="Shape"></path>
                </g>
            </g>
        </g>
    </g>
</svg>