<?xml version="1.0" encoding="UTF-8"?>
<svg width="32px" height="32px" viewBox="0 0 32 32" version="1.1" xmlns="http://www.w3.org/2000/svg" xmlns:xlink="http://www.w3.org/1999/xlink">
    <!-- Generator: Sketch 51.2 (57519) - http://www.bohemiancoding.com/sketch -->
    <title>flaticon1533989624-svg</title>
    <desc>Created with Sketch.</desc>
    <defs></defs>
    <g id="Mobile" stroke="none" stroke-width="1" fill="none" fill-rule="evenodd">
        <g id="Landing-Page" transform="translate(-1292.000000, -744.000000)" fill-rule="nonzero">
            <g id="flaticon1533989624-svg" transform="translate(1292.000000, 744.000000)">
                <ellipse id="XMLID_30_" fill="#DC4E41" cx="15.8861593" cy="16.0272281" rx="15.8861593" ry="15.746807"></ellipse>
                <g id="Group" transform="translate(5.380531, 10.105263)">
                    <path d="M0.150371681,6.62680702 C0.0940176991,9.33614035 1.97663717,11.9216842 4.56637168,12.7649123 C7.00573451,13.5772632 10.0049558,12.9695439 11.628177,10.898807 C12.8133097,9.44785965 13.0826195,7.51354386 12.9543363,5.70638596 C10.8652743,5.68785965 8.77621239,5.69403509 6.69026549,5.69712281 C6.68686726,6.43480702 6.69026549,7.16968421 6.69338053,7.90736842 C7.94421239,7.94161404 9.19532743,7.92589474 10.4461593,7.95087719 C10.1304071,9.0234386 9.41111504,10.021614 8.31943363,10.4089825 C6.21168142,11.3296842 3.52226549,10.1268772 2.85904425,7.93515789 C2.05847788,5.83635088 3.36906195,3.30357895 5.53288496,2.69305263 C6.87461947,2.22512281 8.25684956,2.752 9.40488496,3.44336842 C9.98654867,2.90385965 10.5308319,2.32729825 11.0654867,1.7445614 C9.76113274,0.662736842 8.08495575,-0.000561403509 6.36176991,0.145122807 C2.98081416,0.184982456 0.0220884956,3.27887719 0.150371681,6.62680702 Z" id="Shape" fill="#DC4E41"></path>
                    <path d="M17.0200354,3.83663158 C17.0138053,4.45361404 17.007292,5.07368421 17.004177,5.69038596 C16.3786195,5.6965614 15.7564602,5.69964912 15.1340177,5.70273684 C15.1340177,6.3197193 15.1340177,6.93333333 15.1340177,7.55031579 C15.7564602,7.55340351 16.3820177,7.55649123 17.004177,7.56294737 C17.0104071,8.17992982 17.0104071,8.79663158 17.0166372,9.41670175 C17.6359646,9.41670175 18.2584071,9.41361404 18.8805664,9.41670175 C18.8839646,8.79663158 18.8867965,8.17992982 18.8933097,7.55985965 C19.515469,7.55677193 20.1410265,7.55368421 20.763469,7.55059649 C20.763469,6.93361404 20.763469,6.32 20.763469,5.70301754 C20.1413097,5.69992982 19.5157522,5.69684211 18.8933097,5.69066667 C18.8899115,5.07368421 18.8839646,4.45361404 18.8805664,3.83691228 C18.2584071,3.83663158 17.6390796,3.83663158 17.0200354,3.83663158 Z" id="Shape" fill="#DC4E41"></path>
                    <g fill="#FFFFFF" id="Shape">
                        <path d="M0.150371681,6.62680702 C0.0220884956,3.27887719 2.98053097,0.184982456 6.36148673,0.144842105 C8.08467257,-0.000842105263 9.76113274,0.66245614 11.0652035,1.7442807 C10.5302655,2.32729825 9.9859823,2.90357895 9.40460177,3.44308772 C8.25656637,2.7517193 6.87433628,2.22484211 5.53260177,2.69277193 C3.36849558,3.30357895 2.0579115,5.83635088 2.85876106,7.93487719 C3.5219823,10.1265965 6.21139823,11.3294035 8.31915044,10.4087018 C9.41054867,10.0213333 10.1301239,9.02315789 10.4458761,7.95059649 C9.19504425,7.92589474 7.9439292,7.94133333 6.69309735,7.90708772 C6.6899823,7.16940351 6.68686726,6.43452632 6.6899823,5.69684211 C8.7759292,5.69375439 10.8649912,5.68757895 12.9540531,5.70610526 C13.0823363,7.51354386 12.8133097,9.44785965 11.6278938,10.8985263 C10.0046726,12.9692632 7.00573451,13.5769825 4.5660885,12.7646316 C1.97692035,11.9216842 0.0940176991,9.33614035 0.150371681,6.62680702 Z"></path>
                        <path d="M17.0200354,3.83663158 C17.6393628,3.83663158 18.2584071,3.83663158 18.8805664,3.83663158 C18.8839646,4.45361404 18.8899115,5.07368421 18.8933097,5.69038596 C19.515469,5.6965614 20.1410265,5.69964912 20.763469,5.70273684 C20.763469,6.3197193 20.763469,6.93333333 20.763469,7.55031579 C20.1413097,7.55340351 19.5157522,7.55649123 18.8933097,7.55957895 C18.8870796,8.17964912 18.8839646,8.79635088 18.8805664,9.41642105 C18.2584071,9.41333333 17.6356814,9.41642105 17.0166372,9.41642105 C17.0106903,8.79635088 17.0106903,8.17964912 17.004177,7.56266667 C16.3820177,7.55621053 15.7564602,7.55340351 15.1340177,7.55003509 C15.1340177,6.93305263 15.1340177,6.3194386 15.1340177,5.70245614 C15.7564602,5.69936842 16.3789027,5.6962807 17.004177,5.69010526 C17.007292,5.07368421 17.0135221,4.45361404 17.0200354,3.83663158 Z"></path>
                    </g>
                </g>
            </g>
        </g>
    </g>
</svg>