<?xml version="1.0" encoding="UTF-8"?>
<svg width="32px" height="32px" viewBox="0 0 32 32" version="1.1" xmlns="http://www.w3.org/2000/svg" xmlns:xlink="http://www.w3.org/1999/xlink">
    <!-- Generator: Sketch 51.2 (57519) - http://www.bohemiancoding.com/sketch -->
    <title>Group 3</title>
    <desc>Created with Sketch.</desc>
    <defs></defs>
    <g id="Mobile" stroke="none" stroke-width="1" fill="none" fill-rule="evenodd">
        <g id="Landing-Page" transform="translate(-1376.000000, -745.000000)">
            <g id="Group-3" transform="translate(1376.000000, 745.000000)">
                <circle id="Oval-2" fill="#4A4A4A" cx="16" cy="16" r="16"></circle>
                <g id="flaticon1533990305-svg" transform="translate(8.000000, 7.000000)" fill="#FFFFFF" fill-rule="nonzero">
                    <path d="M11.0526316,0 L1.57894737,0 C0.710526316,0 0,0.736363636 0,1.63636364 L0,13.0909091 L1.57894737,13.0909091 L1.57894737,1.63636364 L11.0526316,1.63636364 L11.0526316,0 Z M13.4210526,3.27272727 L4.73684211,3.27272727 C3.86842105,3.27272727 3.15789474,4.00909091 3.15789474,4.90909091 L3.15789474,16.3636364 C3.15789474,17.2636364 3.86842105,18 4.73684211,18 L13.4210526,18 C14.2894737,18 15,17.2636364 15,16.3636364 L15,4.90909091 C15,4.00909091 14.2894737,3.27272727 13.4210526,3.27272727 Z M13.4210526,16.3636364 L4.73684211,16.3636364 L4.73684211,4.90909091 L13.4210526,4.90909091 L13.4210526,16.3636364 Z" id="Shape"></path>
                </g>
            </g>
        </g>
    </g>
</svg>